<svg width="200" height="60" viewBox="0 0 200 60" fill="none" xmlns="http://www.w3.org/2000/svg">
<rect x="0.7" y="3.7" width="198.6" height="54.6" rx="27.3" stroke="#458FF6" stroke-width="1.4"/>
<path d="M52.386 24.184H54.708V35.092H60.702V37H52.386V24.184ZM70.1995 32.572H63.9355C63.9835 33.544 64.2235 34.264 64.6555 34.732C65.0995 35.188 65.7535 35.416 66.6175 35.416C67.6135 35.416 68.5375 35.092 69.3895 34.444L70.0375 35.992C69.6055 36.34 69.0715 36.622 68.4355 36.838C67.8115 37.042 67.1755 37.144 66.5275 37.144C65.0395 37.144 63.8695 36.724 63.0175 35.884C62.1655 35.044 61.7395 33.892 61.7395 32.428C61.7395 31.504 61.9255 30.682 62.2975 29.962C62.6695 29.242 63.1915 28.684 63.8635 28.288C64.5355 27.88 65.2975 27.676 66.1495 27.676C67.3975 27.676 68.3815 28.084 69.1015 28.9C69.8335 29.704 70.1995 30.814 70.1995 32.23V32.572ZM66.2035 29.296C65.6035 29.296 65.1115 29.476 64.7275 29.836C64.3555 30.184 64.1155 30.694 64.0075 31.366H68.2375C68.1655 30.682 67.9555 30.166 67.6075 29.818C67.2715 29.47 66.8035 29.296 66.2035 29.296ZM80.7989 27.91V37H78.5849V35.542C78.3089 36.046 77.9129 36.442 77.3969 36.73C76.8809 37.006 76.2929 37.144 75.6329 37.144C74.8409 37.144 74.1389 36.952 73.5269 36.568C72.9149 36.184 72.4409 35.638 72.1049 34.93C71.7689 34.222 71.6009 33.4 71.6009 32.464C71.6009 31.528 71.7689 30.7 72.1049 29.98C72.4529 29.248 72.9329 28.684 73.5449 28.288C74.1569 27.88 74.8529 27.676 75.6329 27.676C76.2929 27.676 76.8809 27.82 77.3969 28.108C77.9129 28.384 78.3089 28.774 78.5849 29.278V27.91H80.7989ZM76.2449 35.38C76.9889 35.38 77.5649 35.122 77.9729 34.606C78.3809 34.09 78.5849 33.364 78.5849 32.428C78.5849 31.468 78.3809 30.73 77.9729 30.214C77.5649 29.698 76.9829 29.44 76.2269 29.44C75.4829 29.44 74.9009 29.71 74.4809 30.25C74.0729 30.778 73.8689 31.516 73.8689 32.464C73.8689 33.4 74.0729 34.12 74.4809 34.624C74.9009 35.128 75.4889 35.38 76.2449 35.38ZM88.1454 27.694C88.4934 27.694 88.7934 27.742 89.0454 27.838L89.0274 29.89C88.6434 29.734 88.2474 29.656 87.8394 29.656C87.0714 29.656 86.4834 29.878 86.0754 30.322C85.6794 30.766 85.4814 31.354 85.4814 32.086V37H83.2494V30.484C83.2494 29.524 83.2014 28.666 83.1054 27.91H85.2114L85.3914 29.512C85.6194 28.924 85.9794 28.474 86.4714 28.162C86.9634 27.85 87.5214 27.694 88.1454 27.694ZM95.5002 27.676C97.6722 27.676 98.7582 28.924 98.7582 31.42V37H96.5082V31.528C96.5082 30.808 96.3702 30.286 96.0942 29.962C95.8182 29.626 95.3922 29.458 94.8162 29.458C94.1322 29.458 93.5802 29.68 93.1602 30.124C92.7402 30.556 92.5302 31.132 92.5302 31.852V37H90.2982V30.484C90.2982 29.524 90.2502 28.666 90.1542 27.91H92.2602L92.4222 29.404C92.7342 28.852 93.1542 28.426 93.6822 28.126C94.2222 27.826 94.8282 27.676 95.5002 27.676ZM116.811 27.676C117.843 27.676 118.611 27.988 119.115 28.612C119.619 29.224 119.871 30.16 119.871 31.42V37H117.621V31.492C117.621 30.772 117.501 30.256 117.261 29.944C117.033 29.62 116.649 29.458 116.109 29.458C115.485 29.458 114.993 29.68 114.633 30.124C114.285 30.556 114.111 31.156 114.111 31.924V37H111.861V31.492C111.861 30.784 111.735 30.268 111.483 29.944C111.243 29.62 110.859 29.458 110.331 29.458C109.707 29.458 109.215 29.68 108.855 30.124C108.495 30.556 108.315 31.156 108.315 31.924V37H106.083V30.484C106.083 29.524 106.035 28.666 105.939 27.91H108.045L108.207 29.35C108.471 28.81 108.849 28.396 109.341 28.108C109.845 27.82 110.421 27.676 111.069 27.676C112.461 27.676 113.367 28.252 113.787 29.404C114.075 28.864 114.483 28.444 115.011 28.144C115.551 27.832 116.151 27.676 116.811 27.676ZM126.395 37.144C125.471 37.144 124.655 36.952 123.947 36.568C123.251 36.184 122.711 35.638 122.327 34.93C121.955 34.21 121.769 33.37 121.769 32.41C121.769 31.45 121.955 30.616 122.327 29.908C122.711 29.188 123.251 28.636 123.947 28.252C124.655 27.868 125.471 27.676 126.395 27.676C127.307 27.676 128.111 27.868 128.807 28.252C129.503 28.636 130.037 29.188 130.409 29.908C130.793 30.616 130.985 31.45 130.985 32.41C130.985 33.37 130.793 34.21 130.409 34.93C130.037 35.638 129.503 36.184 128.807 36.568C128.111 36.952 127.307 37.144 126.395 37.144ZM126.377 35.38C127.145 35.38 127.727 35.134 128.123 34.642C128.531 34.138 128.735 33.394 128.735 32.41C128.735 31.438 128.531 30.7 128.123 30.196C127.715 29.68 127.139 29.422 126.395 29.422C125.639 29.422 125.057 29.68 124.649 30.196C124.241 30.7 124.037 31.438 124.037 32.41C124.037 33.394 124.235 34.138 124.631 34.642C125.039 35.134 125.621 35.38 126.377 35.38ZM137.821 27.694C138.169 27.694 138.469 27.742 138.721 27.838L138.703 29.89C138.319 29.734 137.923 29.656 137.515 29.656C136.747 29.656 136.159 29.878 135.751 30.322C135.355 30.766 135.157 31.354 135.157 32.086V37H132.925V30.484C132.925 29.524 132.877 28.666 132.781 27.91H134.887L135.067 29.512C135.295 28.924 135.655 28.474 136.147 28.162C136.639 27.85 137.197 27.694 137.821 27.694ZM147.754 32.572H141.49C141.538 33.544 141.778 34.264 142.21 34.732C142.654 35.188 143.308 35.416 144.172 35.416C145.168 35.416 146.092 35.092 146.944 34.444L147.592 35.992C147.16 36.34 146.626 36.622 145.99 36.838C145.366 37.042 144.73 37.144 144.082 37.144C142.594 37.144 141.424 36.724 140.572 35.884C139.72 35.044 139.294 33.892 139.294 32.428C139.294 31.504 139.48 30.682 139.852 29.962C140.224 29.242 140.746 28.684 141.418 28.288C142.09 27.88 142.852 27.676 143.704 27.676C144.952 27.676 145.936 28.084 146.656 28.9C147.388 29.704 147.754 30.814 147.754 32.23V32.572ZM143.758 29.296C143.158 29.296 142.666 29.476 142.282 29.836C141.91 30.184 141.67 30.694 141.562 31.366H145.792C145.72 30.682 145.51 30.166 145.162 29.818C144.826 29.47 144.358 29.296 143.758 29.296Z" fill="#458FF6"/>
</svg>
